<svg width="32" height="32" viewBox="0 0 32 32" fill="none" xmlns="http://www.w3.org/2000/svg">
<path d="M28 0C30.2091 0 32 1.79086 32 4V28C32 30.2091 30.2091 32 28 32H4C1.79086 32 0 30.2091 0 28V4C0 1.79086 1.79086 0 4 0H28ZM8.26367 13.3203V23.9902H11.5801V13.3203H8.26367ZM20.0195 13.0625C18.4064 13.0625 17.3259 13.9465 16.8828 14.7852H16.8389V13.3203H13.6602V23.9902H16.9707V18.7178C16.9708 17.319 17.2601 15.9717 18.9609 15.9717C20.6619 15.9717 20.6836 17.5629 20.6836 18.7988V23.9902H24V18.1309C24 15.2653 23.3775 13.0553 20.0195 13.0625ZM9.92285 8.00977C9.41325 8.00977 8.92399 8.2121 8.56348 8.57227C8.20302 8.93238 8.00054 9.42115 8 9.93066C7.99964 10.311 8.1122 10.6836 8.32324 11C8.53423 11.3162 8.83449 11.5623 9.18555 11.708C9.53683 11.8538 9.9238 11.8923 10.2969 11.8184C10.6697 11.7444 11.0123 11.5616 11.2812 11.293C11.5503 11.0242 11.7343 10.6816 11.8086 10.3086C11.8829 9.93559 11.8447 9.54869 11.6992 9.19727C11.5538 8.84588 11.3074 8.54532 10.9912 8.33398C10.6751 8.12268 10.3031 8.00981 9.92285 8.00977Z" fill="#C2CDDF"/>
</svg>
