<svg width="24" height="24" viewBox="0 0 24 24" fill="none" xmlns="http://www.w3.org/2000/svg">
<path d="M20 0C22.2091 2.57702e-07 24 1.79086 24 4V20C24 22.2091 22.2091 24 20 24H4C1.79086 24 6.44266e-08 22.2091 0 20V4C2.57706e-07 1.79086 1.79086 6.44256e-08 4 0H20ZM6.19824 9.9873V18H8.68457V9.9873H6.19824ZM15.0146 9.79395C13.8048 9.79395 12.9945 10.4581 12.6621 11.0879H12.6289V9.9873H10.2451V18H12.7275V14.041C12.7276 12.9906 12.945 11.9785 14.2207 11.9785C15.4964 11.9786 15.5127 13.1734 15.5127 14.1016V18H18V13.5996C18 11.4479 17.533 9.78855 15.0146 9.79395ZM7.44238 6C7.06018 6 6.69324 6.15238 6.42285 6.42285C6.15261 6.69329 6.00037 7.05982 6 7.44238C5.99973 7.728 6.08391 8.00751 6.24219 8.24512C6.40047 8.4827 6.62621 8.66786 6.88965 8.77734C7.15301 8.8867 7.44299 8.91588 7.72266 8.86035C8.00241 8.80478 8.25917 8.66668 8.46094 8.46484C8.66269 8.26299 8.8007 8.00565 8.85645 7.72559C8.91208 7.44562 8.88345 7.15536 8.77441 6.8916C8.66531 6.6277 8.48033 6.40187 8.24316 6.24316C8.00615 6.08461 7.72743 6.00008 7.44238 6Z" fill="#00DAFF"/>
</svg>
