<svg width="32" height="32" viewBox="0 0 32 32" fill="none" xmlns="http://www.w3.org/2000/svg">
<path d="M28 0C30.2091 0 32 1.79086 32 4V28C32 30.2091 30.2091 32 28 32H4C1.79086 32 0 30.2091 0 28V4C0 1.79086 1.79086 0 4 0H28ZM21.2246 12.3623C20.6152 12.3584 20.0106 12.4851 19.4521 12.7334C18.933 12.9692 18.4662 13.3107 18.0811 13.7363C17.6884 14.1783 17.3868 14.6968 17.1953 15.2598C16.986 15.8753 16.882 16.5235 16.8877 17.1748C16.8771 17.8356 16.978 18.4939 17.1855 19.1201C17.3588 19.6805 17.6379 20.2014 18.0068 20.6533C18.3797 21.0887 18.8455 21.4324 19.3682 21.6572C19.9428 21.8928 20.5583 22.0083 21.1777 21.9971C22.0496 22.025 22.9096 21.7802 23.6406 21.2959C24.3348 20.7588 24.8455 20.0123 25.0986 19.1631C25.1328 19.0513 25.0476 18.9409 24.9326 18.9404H23.2246C23.1882 18.9416 23.1524 18.9532 23.1221 18.9736C23.0917 18.9943 23.0668 19.0238 23.0518 19.0576C22.9354 19.3216 22.7514 19.5457 22.5205 19.7021C22.1668 19.9559 21.7412 20.0862 21.3086 20.0732C21.0242 20.1049 20.7357 20.0726 20.4629 19.9795C20.1902 19.8863 19.9377 19.7338 19.7227 19.5312C19.3212 19.0368 19.1148 18.4073 19.1445 17.7666H25.3193C25.3634 17.094 25.3092 16.4176 25.1602 15.7607C25.0152 15.1377 24.7625 14.5491 24.415 14.0264C24.0699 13.5252 23.6161 13.1107 23.0898 12.8145C22.5147 12.5086 21.8735 12.3533 21.2246 12.3623ZM6.93359 9.33301C6.86308 9.33303 6.79507 9.36245 6.74512 9.41309C6.69535 9.46383 6.66714 9.53281 6.66699 9.60449V21.6738C6.66699 21.7458 6.69514 21.8153 6.74512 21.8662C6.7951 21.917 6.86294 21.9453 6.93359 21.9453H12.3564C12.8755 21.9453 13.3933 21.8746 13.8945 21.7344C14.3736 21.5998 14.8255 21.3791 15.2285 21.083C15.6265 20.7855 15.9475 20.393 16.1621 19.9404C16.405 19.425 16.5233 18.8575 16.5068 18.2861C16.5255 17.5794 16.3407 16.8821 15.9746 16.2812C15.5946 15.6916 15.013 15.2657 14.3428 15.0869L14.3896 15.0889C14.8696 14.8719 15.2825 14.5252 15.583 14.0869C15.8657 13.6102 16.0057 13.0583 15.9844 12.502C16.0032 11.9934 15.9107 11.4864 15.7139 11.0186C15.553 10.62 15.2885 10.2733 14.9492 10.0156C14.5937 9.75337 14.1894 9.57467 13.7646 9.49414C13.2629 9.38067 12.7493 9.32654 12.2354 9.33301H6.93359ZM11.9785 16.1182C12.4794 16.1183 12.9603 16.3212 13.3145 16.6816C13.6686 17.0421 13.868 17.5314 13.8682 18.041C13.8681 18.5507 13.6685 19.0399 13.3145 19.4004C12.9603 19.7608 12.4794 19.9628 11.9785 19.9629H9.37793C9.33095 19.9628 9.28617 19.944 9.25293 19.9102C9.21963 19.8762 9.2002 19.8302 9.2002 19.7822V16.2998C9.20044 16.2006 9.28049 16.1184 9.37793 16.1182H11.9785ZM21.1787 14.1973C21.6558 14.1974 22.1138 14.3901 22.4512 14.7334C22.7884 15.0767 22.9784 15.5429 22.9785 16.0283C22.9786 16.0401 22.976 16.0526 22.9717 16.0635C22.9673 16.0743 22.9602 16.0844 22.9521 16.0928C22.9439 16.1011 22.9336 16.1078 22.9229 16.1123C22.9121 16.1168 22.9003 16.1192 22.8887 16.1191H19.29C19.2783 16.1193 19.2658 16.1168 19.2549 16.1123C19.2441 16.1078 19.2338 16.1012 19.2256 16.0928C19.2175 16.0845 19.2114 16.0743 19.207 16.0635C19.2027 16.0525 19.2001 16.0401 19.2002 16.0283C19.2003 15.543 19.3894 15.0767 19.7266 14.7334C20.0639 14.3903 20.5221 14.1973 20.999 14.1973H21.1787ZM11.8672 11.3691C12.2796 11.3692 12.6761 11.5353 12.9678 11.832C13.2594 12.1288 13.4227 12.5324 13.4229 12.9521C13.4228 13.3717 13.2591 13.7745 12.9678 14.0713C12.6761 14.3681 12.2797 14.5351 11.8672 14.5352H9.37793C9.28042 14.5349 9.20032 14.4538 9.2002 14.3545V11.5498C9.20032 11.502 9.21969 11.4557 9.25293 11.4219C9.28612 11.3883 9.33116 11.3693 9.37793 11.3691H11.8672ZM19.0576 9.97559C18.9871 9.97559 18.9191 10.005 18.8691 10.0557C18.8193 10.1064 18.7912 10.1754 18.791 10.2471V11.1172C18.791 11.1891 18.8192 11.2587 18.8691 11.3096C18.9191 11.3604 18.987 11.3887 19.0576 11.3887H23.2676C23.3027 11.3886 23.3377 11.3819 23.3701 11.3682C23.4024 11.3544 23.4324 11.3339 23.457 11.3086C23.4817 11.2831 23.5015 11.2519 23.5146 11.2188C23.5277 11.1856 23.5346 11.1499 23.5342 11.1143L23.5225 10.2441C23.5214 10.1729 23.4932 10.1037 23.4434 10.0537C23.3936 10.0038 23.3257 9.97567 23.2559 9.97559H19.0576Z" fill="#C2CDDF"/>
</svg>
