<svg width="24" height="24" viewBox="0 0 24 24" fill="none" xmlns="http://www.w3.org/2000/svg">
<path d="M20 0C22.2091 2.57702e-07 24 1.79086 24 4V20C24 22.2091 22.2091 24 20 24H4C1.79086 24 6.44266e-08 22.2091 0 20V4C2.57706e-07 1.79086 1.79086 6.44256e-08 4 0H20ZM15.918 9.27246C15.4608 9.26955 15.0078 9.36445 14.5889 9.55078C14.1995 9.72765 13.8494 9.98348 13.5605 10.3027C13.2661 10.6342 13.0401 11.0231 12.8965 11.4453C12.7396 11.907 12.6617 12.3933 12.666 12.8818C12.6581 13.3773 12.733 13.8713 12.8887 14.3408C13.0187 14.7611 13.2281 15.1523 13.5049 15.4912C13.7844 15.8175 14.1337 16.0746 14.5254 16.2432C14.9563 16.4199 15.4183 16.5074 15.8828 16.499C16.5367 16.52 17.1822 16.3359 17.7305 15.9727C18.2511 15.57 18.6333 15.0098 18.8232 14.373C18.8492 14.289 18.7857 14.2063 18.6992 14.2061H17.418C17.3905 14.2069 17.3637 14.2159 17.3408 14.2314C17.3182 14.247 17.3002 14.2686 17.2891 14.2939C17.2017 14.4919 17.0629 14.66 16.8896 14.7773C16.6244 14.9674 16.3057 15.0654 15.9814 15.0557C15.7683 15.0794 15.5522 15.0551 15.3477 14.9854C15.1432 14.9155 14.9532 14.8012 14.792 14.6494C14.491 14.2788 14.3363 13.8065 14.3584 13.3262H18.9893C19.0224 12.8217 18.9819 12.314 18.8701 11.8213C18.7615 11.354 18.5711 10.9125 18.3105 10.5205C18.0517 10.1447 17.712 9.83352 17.3174 9.61133C16.8858 9.38184 16.4048 9.26559 15.918 9.27246ZM5.2002 7.00098C5.14715 7.00098 5.0961 7.02237 5.05859 7.06055C5.02131 7.09867 5.00002 7.15031 5 7.2041V16.2559C5.0001 16.3097 5.02117 16.3623 5.05859 16.4004C5.09608 16.4384 5.14727 16.46 5.2002 16.46H9.2666C9.65594 16.46 10.0449 16.4069 10.4209 16.3018C10.78 16.2009 11.1188 16.0354 11.4209 15.8135C11.7195 15.5904 11.9601 15.2955 12.1211 14.9561C12.3033 14.5695 12.3922 14.1434 12.3799 13.7148C12.3939 13.185 12.2549 12.6624 11.9805 12.2119C11.6955 11.7696 11.2596 11.4506 10.7568 11.3164L10.792 11.3174C11.1522 11.1547 11.462 10.8943 11.6875 10.5654C11.8995 10.2081 12.0041 9.795 11.9883 9.37793C12.0025 8.99643 11.9328 8.61563 11.7852 8.26465C11.6646 7.9658 11.4663 7.70598 11.2119 7.5127C10.9452 7.31594 10.6419 7.18149 10.3232 7.12109C9.94695 7.036 9.56219 6.99613 9.17676 7.00098H5.2002ZM8.9834 12.0898C9.35908 12.0898 9.71966 12.2414 9.98535 12.5117C10.2509 12.7821 10.4004 13.149 10.4004 13.5312C10.4003 13.9135 10.251 14.2805 9.98535 14.5508C9.71967 14.821 9.35906 14.9736 8.9834 14.9736H7.0332C6.99812 14.9735 6.96435 14.9587 6.93945 14.9336C6.91462 14.9083 6.90058 14.8736 6.90039 14.8379V12.2256C6.90039 12.1511 6.96001 12.09 7.0332 12.0898H8.9834ZM15.8838 10.6484C16.2417 10.6484 16.5848 10.7933 16.8379 11.0508C17.0908 11.3083 17.2333 11.6574 17.2334 12.0215C17.2334 12.0303 17.2318 12.0397 17.2285 12.0479C17.2252 12.0561 17.22 12.064 17.2139 12.0703C17.2078 12.0765 17.2003 12.0816 17.1924 12.085C17.1842 12.0883 17.1748 12.0899 17.166 12.0898H14.4668C14.4581 12.0899 14.4495 12.0883 14.4414 12.085C14.4333 12.0816 14.4252 12.0766 14.4189 12.0703C14.4129 12.0641 14.4076 12.056 14.4043 12.0479C14.4011 12.0397 14.3994 12.0303 14.3994 12.0215C14.3995 11.6575 14.5421 11.3082 14.7949 11.0508C15.0479 10.7933 15.3912 10.6485 15.749 10.6484H15.8838ZM8.90039 8.52734C9.20984 8.52735 9.50677 8.65232 9.72559 8.875C9.94426 9.09766 10.0674 9.40003 10.0674 9.71484C10.0672 10.0296 9.94428 10.3321 9.72559 10.5547C9.5068 10.7772 9.2097 10.9023 8.90039 10.9023H7.0332C6.9602 10.9022 6.90069 10.8409 6.90039 10.7666V8.66309C6.90039 8.62722 6.91461 8.59281 6.93945 8.56738C6.96438 8.54201 6.99796 8.52743 7.0332 8.52734H8.90039ZM14.293 7.48242C14.24 7.48242 14.1889 7.50392 14.1514 7.54199C14.114 7.58015 14.0928 7.63263 14.0928 7.68652V8.33887C14.0929 8.39272 14.1139 8.44532 14.1514 8.4834C14.1888 8.52129 14.2401 8.54297 14.293 8.54297H17.4502C17.4766 8.54297 17.503 8.53671 17.5273 8.52637C17.5516 8.51605 17.5743 8.50139 17.5928 8.48242C17.6113 8.46335 17.6259 8.43987 17.6357 8.41504C17.6456 8.39015 17.6507 8.36277 17.6504 8.33594L17.6416 7.68359C17.6409 7.63017 17.6193 7.57859 17.582 7.54102C17.5446 7.5036 17.4939 7.48242 17.4414 7.48242H14.293Z" fill="#00DAFF"/>
</svg>
