<svg width="32" height="32" viewBox="0 0 32 32" fill="none" xmlns="http://www.w3.org/2000/svg">
<path d="M28 0C30.2091 0 32 1.79086 32 4V28C32 30.2091 30.2091 32 28 32H4C1.79086 32 0 30.2091 0 28V4C0 1.79086 1.79086 0 4 0H28ZM16 6.66699C10.8521 6.66699 6.66699 10.85 6.66699 16.0039C6.66713 21.1504 10.8522 25.333 16 25.333C21.1479 25.333 25.333 21.1427 25.333 15.9961C25.3329 10.8496 21.1478 6.66699 16 6.66699ZM17.415 17.3027C18.5306 20.2081 18.9966 22.6468 19.1133 23.3477C18.1581 23.7564 17.101 23.9829 16 23.9756C14.1553 23.9756 12.4563 23.348 11.1074 22.2969C11.2533 22.0049 12.8644 18.8869 17.3633 17.3174C17.3779 17.3174 17.4005 17.31 17.415 17.3027ZM18.9023 16.9307C21.4033 16.5365 23.5984 17.1858 23.8682 17.2734C23.5182 19.4926 22.2419 21.4058 20.4482 22.6104C20.368 22.1285 19.9451 19.7924 18.9023 16.9307ZM16.2256 14.6309C16.4589 15.0761 16.6782 15.5289 16.875 15.9814C16.773 16.0106 16.6635 16.0397 16.5615 16.0762C12.4498 17.4119 10.2621 21.0321 10.0791 21.3398C8.80321 19.9237 8.02982 18.0551 8.02246 16.0039C8.02246 15.9236 8.03027 15.843 8.03027 15.7627C8.38067 15.77 12.2447 15.8206 16.2256 14.6309ZM22.1689 10.9668C23.2844 12.3246 23.9557 14.0546 23.9775 15.9307C23.715 15.8796 21.0819 15.339 18.4277 15.6748C18.3695 15.5436 18.3112 15.4051 18.2529 15.2666C18.0853 14.8798 17.903 14.4928 17.7207 14.1133C20.6661 12.9089 22.0009 11.1935 22.1689 10.9668ZM12.6162 8.79785C12.8204 9.08254 14.2496 11.0539 15.5693 13.4043C11.8373 14.3967 8.55722 14.3833 8.19824 14.376C8.71594 11.9086 10.3778 9.84911 12.6162 8.79785ZM16 8.03906C18.027 8.03906 19.8789 8.79858 21.2861 10.0469C21.1394 10.2525 19.9435 11.8575 17.1084 12.9229C15.8032 10.5212 14.3526 8.54991 14.1338 8.25781C14.7316 8.11918 15.3585 8.03906 16 8.03906Z" fill="#C2CDDF"/>
</svg>
