<svg width="24" height="24" viewBox="0 0 24 24" fill="none" xmlns="http://www.w3.org/2000/svg">
<path d="M20 0C22.2091 2.57702e-07 24 1.79086 24 4V20C24 22.2091 22.2091 24 20 24H4C1.79086 24 6.44266e-08 22.2091 0 20V4C2.57706e-07 1.79086 1.79086 6.44256e-08 4 0H20ZM12 5C8.13906 5 5 8.13746 5 12.0029C5.0001 15.8628 8.13913 19 12 19C15.8609 19 19 15.8571 19 11.9971C18.9999 8.13717 15.8609 5 12 5ZM13.0605 12.9775C13.8972 15.1566 14.2474 16.9851 14.335 17.5107C13.6186 17.8173 12.8257 17.9869 12 17.9814C10.6164 17.9814 9.3418 17.5111 8.33008 16.7227C8.43945 16.5037 9.64838 14.1655 13.0225 12.9883C13.0333 12.9883 13.0496 12.9829 13.0605 12.9775ZM14.1768 12.6982C16.0511 12.4029 17.6961 12.8888 17.9004 12.9551C17.6379 14.6195 16.6812 16.0546 15.3359 16.958C15.2758 16.5967 14.9587 14.8444 14.1768 12.6982ZM12.1699 10.9736C12.3449 11.3075 12.5086 11.647 12.6562 11.9863C12.5797 12.0082 12.4975 12.0302 12.4209 12.0576C9.33771 13.0593 7.69726 15.7733 7.55957 16.0049C6.60259 14.9427 6.02309 13.5414 6.01758 12.0029C6.01758 11.9428 6.02245 11.8824 6.02246 11.8223C6.28496 11.8277 9.18398 11.8661 12.1699 10.9736ZM16.627 8.22461C17.4637 9.24298 17.966 10.5411 17.9824 11.9482C17.7837 11.9095 15.8108 11.5052 13.8213 11.7568C13.7776 11.6584 13.7332 11.5541 13.6895 11.4502C13.5637 11.1601 13.4277 10.8695 13.291 10.585C15.5002 9.68156 16.5012 8.39433 16.627 8.22461ZM9.46289 6.59863C9.6163 6.81256 10.6881 8.29101 11.6777 10.0537C8.87777 10.7983 6.41645 10.7877 6.14844 10.7822C6.53672 8.93162 7.78398 7.38706 9.46289 6.59863ZM12 6.0293C13.5203 6.0293 14.9094 6.5989 15.9648 7.53516C15.8551 7.68889 14.9579 8.89319 12.8311 9.69238C11.8521 7.89105 10.7637 6.41237 10.5996 6.19336C11.048 6.08933 11.5188 6.0293 12 6.0293Z" fill="#00DAFF"/>
</svg>
