<svg width="32" height="32" viewBox="0 0 32 32" fill="none" xmlns="http://www.w3.org/2000/svg">
<path d="M28 0C30.2091 0 32 1.79086 32 4V28C32 30.2091 30.2091 32 28 32H4C1.79086 32 0 30.2091 0 28V4C0 1.79086 1.79086 0 4 0H28ZM15.999 6.66699C13.4659 6.667 13.1476 6.6774 12.1523 6.72266C11.1588 6.76821 10.4801 6.92544 9.88672 7.15625C9.27289 7.39461 8.75207 7.71357 8.2334 8.23242C7.71423 8.75122 7.39536 9.27214 7.15625 9.88574C6.92478 10.4793 6.76736 11.1582 6.72266 12.1514C6.67814 13.1469 6.66699 13.4652 6.66699 16C6.66699 18.5348 6.67748 18.8522 6.72266 19.8477C6.76839 20.8409 6.92575 21.5191 7.15625 22.1123C7.39481 22.7263 7.71447 23.2479 8.2334 23.7666C8.75192 24.2856 9.27243 24.6054 9.88574 24.8438C10.4796 25.0745 11.158 25.2318 12.1514 25.2773C13.147 25.3226 13.4653 25.333 16 25.333C18.5348 25.333 18.8522 25.3226 19.8477 25.2773C20.8411 25.2318 21.5204 25.0745 22.1143 24.8438C22.7277 24.6055 23.2473 24.2855 23.7656 23.7666C24.2848 23.2479 24.6045 22.7269 24.8438 22.1133C25.0732 21.5196 25.2307 20.8409 25.2773 19.8477C25.322 18.8522 25.333 18.5348 25.333 16C25.333 13.4652 25.3221 13.147 25.2773 12.1514C25.2307 11.1581 25.073 10.48 24.8438 9.88672C24.6045 9.27277 24.2848 8.75126 23.7656 8.23242C23.2466 7.71355 22.7275 7.39428 22.1133 7.15625C21.5183 6.92538 20.8392 6.7681 19.8457 6.72266C18.8506 6.67741 18.5333 6.667 15.999 6.66699ZM15.1631 8.34863C15.4116 8.34826 15.6895 8.34863 16.001 8.34863C18.4929 8.34863 18.7884 8.35764 19.7725 8.40234C20.6821 8.44396 21.1759 8.59589 21.5049 8.72363C21.9405 8.89275 22.2516 9.09512 22.5781 9.42188C22.9047 9.74847 23.1068 10.0596 23.2764 10.4951C23.4041 10.8236 23.5562 11.3176 23.5977 12.2275C23.6424 13.2115 23.6523 13.5072 23.6523 15.998C23.6523 18.4887 23.6424 18.7848 23.5977 19.7686C23.556 20.6783 23.4041 21.1724 23.2764 21.501C23.1073 21.9365 22.9047 22.2468 22.5781 22.5732C22.2515 22.8999 21.9406 23.1013 21.5049 23.2705C21.1763 23.3988 20.6822 23.5511 19.7725 23.5928C18.7886 23.6375 18.4929 23.6475 16.001 23.6475C13.5089 23.6475 13.2133 23.6375 12.2295 23.5928C11.3195 23.5508 10.8254 23.3983 10.4961 23.2705C10.0607 23.1013 9.74947 22.8989 9.42285 22.5723C9.09635 22.2457 8.89415 21.9356 8.72461 21.5C8.59685 21.1714 8.44477 20.6775 8.40332 19.7676C8.35861 18.7837 8.34961 18.4876 8.34961 15.9951C8.34961 13.5033 8.35863 13.2092 8.40332 12.2256C8.44495 11.3156 8.59684 10.8212 8.72461 10.4922C8.8938 10.0567 9.09616 9.74556 9.42285 9.41895C9.74955 9.09234 10.0606 8.89018 10.4961 8.7207C10.8251 8.59237 11.3195 8.44025 12.2295 8.39844C13.0904 8.35952 13.4241 8.34864 15.1631 8.34668V8.34863ZM16.001 11.207C13.354 11.207 11.208 13.353 11.208 16C11.208 18.647 13.354 20.792 16.001 20.792C18.6479 20.7919 20.793 18.647 20.793 16C20.793 13.3532 18.6479 11.2072 16.001 11.207ZM16.001 12.8887C17.7191 12.8887 19.1123 14.2817 19.1123 16C19.1123 17.7181 17.7191 19.1113 16.001 19.1113C14.2828 19.1113 12.8896 17.7182 12.8896 16C12.8896 14.2816 14.2827 12.8887 16.001 12.8887ZM20.9834 9.89746C20.3652 9.89746 19.8634 10.3993 19.8633 11.0176C19.8633 11.6359 20.3651 12.1377 20.9834 12.1377C21.6015 12.1375 22.1025 11.6358 22.1025 11.0176C22.1024 10.3995 21.6014 9.89769 20.9834 9.89746Z" fill="#C2CDDF"/>
</svg>
