<svg width="24" height="24" viewBox="0 0 24 24" fill="none" xmlns="http://www.w3.org/2000/svg">
<path d="M20 0C22.2091 2.57702e-07 24 1.79086 24 4V20C24 22.2091 22.2091 24 20 24H4C1.79086 24 6.44266e-08 22.2091 0 20V4C2.57706e-07 1.79086 1.79086 6.44256e-08 4 0H20ZM11.999 5C10.0994 5 9.86067 5.00805 9.11426 5.04199C8.36906 5.07615 7.86009 5.19408 7.41504 5.36719C6.95472 5.54593 6.56474 5.78575 6.17578 6.1748C5.78637 6.56393 5.54653 6.95479 5.36719 7.41504C5.19371 7.86008 5.07552 8.3688 5.04199 9.11328C5.0086 9.85996 5 10.0989 5 12C5 13.9011 5.00811 14.1391 5.04199 14.8857C5.0763 15.6309 5.19423 16.1399 5.36719 16.585C5.54607 17.0452 5.78579 17.4353 6.1748 17.8242C6.56373 18.2136 6.95405 18.454 7.41406 18.6328C7.85939 18.8059 8.36842 18.9238 9.11328 18.958C9.85997 18.992 10.099 19 12 19C13.9011 19 14.1391 18.992 14.8857 18.958C15.6306 18.9238 16.1397 18.8058 16.585 18.6328C17.0452 18.454 17.4353 18.2136 17.8242 17.8242C18.2136 17.4352 18.4534 17.0452 18.6328 16.585C18.8049 16.1397 18.923 15.6307 18.958 14.8857C18.9915 14.1391 19 13.9011 19 12C19 10.0989 18.9915 9.85996 18.958 9.11328C18.923 8.36845 18.8048 7.85994 18.6328 7.41504C18.4534 6.95458 18.2136 6.56393 17.8242 6.1748C17.4349 5.78553 17.0457 5.54574 16.585 5.36719C16.1388 5.19406 15.6298 5.07609 14.8848 5.04199C14.1381 5.00805 13.9002 5 11.999 5ZM11.373 6.26172C11.5594 6.26144 11.7675 6.26172 12.001 6.26172C13.8696 6.26172 14.0912 6.26824 14.8291 6.30176C15.5116 6.33298 15.8822 6.44714 16.1289 6.54297C16.4556 6.66981 16.6887 6.82134 16.9336 7.06641C17.1785 7.31129 17.3299 7.54461 17.457 7.87109C17.5529 8.11749 17.6672 8.48841 17.6982 9.1709C17.7318 9.90863 17.7393 10.1304 17.7393 11.998C17.7393 13.8662 17.7318 14.0883 17.6982 14.8262C17.667 15.5083 17.5528 15.8785 17.457 16.125C17.3302 16.4517 17.1786 16.6849 16.9336 16.9297C16.6886 17.1747 16.4557 17.3262 16.1289 17.4531C15.8824 17.5494 15.5116 17.6631 14.8291 17.6943C14.0913 17.7279 13.8696 17.7354 12.001 17.7354C10.1318 17.7354 9.90975 17.7279 9.17188 17.6943C8.4895 17.6628 8.11901 17.5489 7.87207 17.4531C7.54557 17.3263 7.3123 17.1746 7.06738 16.9297C6.82238 16.6847 6.67016 16.4518 6.54297 16.125C6.44714 15.8785 6.33381 15.5076 6.30273 14.8252C6.26922 14.0876 6.26172 13.8657 6.26172 11.9971C6.26172 10.1277 6.2692 9.90688 6.30273 9.16895C6.33396 8.48648 6.44714 8.11589 6.54297 7.86914C6.66988 7.54246 6.82232 7.30944 7.06738 7.06445C7.31245 6.81946 7.54538 6.66716 7.87207 6.54004C8.1188 6.4438 8.48949 6.3302 9.17188 6.29883C9.81763 6.26964 10.0685 6.26124 11.373 6.25977V6.26172ZM12.001 8.40527C10.0158 8.40527 8.40625 10.0148 8.40625 12C8.40625 13.9853 10.0158 15.5938 12.001 15.5938C13.9861 15.5936 15.5947 13.9851 15.5947 12C15.5947 10.015 13.986 8.40554 12.001 8.40527ZM12.001 9.66699C13.2894 9.66718 14.334 10.7114 14.334 12C14.334 13.2885 13.2894 14.3328 12.001 14.333C10.7123 14.333 9.66699 13.2886 9.66699 12C9.66699 10.7112 10.7123 9.66699 12.001 9.66699ZM15.7373 7.42383C15.2736 7.42383 14.8975 7.79986 14.8975 8.26367C14.8976 8.72731 15.2736 9.10352 15.7373 9.10352C16.2009 9.10348 16.577 8.72729 16.5771 8.26367C16.5771 7.79995 16.201 7.42387 15.7373 7.42383Z" fill="#00DAFF"/>
</svg>
