<svg width="149" height="24" viewBox="0 0 149 24" fill="none" xmlns="http://www.w3.org/2000/svg">
<path d="M19.1202 5.6534C18.3069 4.60055 17.085 4 15.7606 4H8.23753C5.90024 4 4 5.90046 4 8.23803V15.7639C4 17.0866 4.60048 18.3105 5.64751 19.1182C5.64941 19.1182 5.65131 19.1201 5.65321 19.122C6.3886 19.6883 7.30641 20 8.23753 20H15.7625C18.0979 20 20 18.0995 20 15.762V8.23803C20 7.30681 19.6884 6.39078 19.1221 5.6534H19.1202ZM6.79525 15.762V8.23803C6.79525 7.44174 7.43943 6.79748 8.23563 6.79748H15.7606C16.2261 6.79748 16.6404 7.01794 16.9045 7.36002L7.35772 16.9079C7.01568 16.6438 6.79525 16.2295 6.79525 15.7639V15.762Z" fill="#00D800"/>
<path d="M28.3767 20.9899C27.0308 20.9899 25.9657 20.6255 25.1789 19.8969C24.3921 19.1682 24 18.1789 24 16.9316C24 15.5856 24.4655 14.5533 25.399 13.8322C26.33 13.1112 27.6734 12.7494 29.4216 12.7494H32.1944V11.7525C32.1944 11.2338 32.0122 10.8214 31.6479 10.5128C31.2836 10.2041 30.7928 10.0497 30.178 10.0497C29.6113 10.0497 29.1408 10.1788 28.7689 10.4394C28.5007 10.6266 28.3059 10.8644 28.1895 11.1529C28.101 11.3679 27.8935 11.5096 27.6633 11.5096H25.2422C24.8753 11.5096 24.5996 11.168 24.6856 10.8138C24.9361 9.79167 25.4825 8.95927 26.3275 8.31157C27.3572 7.52471 28.6828 7.13255 30.302 7.13255C32.0046 7.13255 33.353 7.55001 34.3498 8.38494C35.3466 9.21987 35.845 10.3432 35.845 11.7525V20.1853C35.845 20.4965 35.592 20.7495 35.2808 20.7495H32.885C32.5738 20.7495 32.3208 20.4965 32.3208 20.1853V18.561H31.7364L32.3436 17.7109C32.3436 18.7153 31.9818 19.5148 31.2608 20.1069C30.5398 20.6989 29.5784 20.9949 28.3793 20.9949L28.3767 20.9899ZM29.7378 18.3156C30.4512 18.3156 31.0382 18.1258 31.5012 17.7438C31.9641 17.3642 32.1944 16.8658 32.1944 16.2485V14.8139H29.4949C28.9434 14.8139 28.4982 14.9708 28.1566 15.287C27.8151 15.6033 27.6456 16.0208 27.6456 16.5394C27.6456 17.091 27.8328 17.5236 28.2047 17.8399C28.5766 18.1562 29.0876 18.313 29.7353 18.313L29.7378 18.3156Z" fill="#00D800"/>
<path d="M40.9373 20.3554L36.93 8.10974C36.8111 7.74793 37.0818 7.37348 37.4638 7.37348H40.0392C40.2871 7.37348 40.5072 7.5354 40.5755 7.77323L42.6931 14.8853C42.8221 15.3382 42.9511 15.8341 43.0827 16.368C43.2117 16.9018 43.3104 17.3319 43.3736 17.6558C43.4546 17.3319 43.5558 16.9018 43.6772 16.368C43.7986 15.8341 43.915 15.3458 44.0289 14.9081L46.1186 7.79094C46.1919 7.54047 46.4196 7.37095 46.6802 7.37095H49.157C49.5542 7.37095 49.8375 7.75805 49.7136 8.13757L45.7618 20.3503C45.6859 20.5856 45.4658 20.745 45.2204 20.745H41.4762C41.2308 20.745 41.0107 20.5856 40.9348 20.3529L40.9373 20.3554Z" fill="#00D800"/>
<path d="M51.3207 7.9455V10.0834C51.3207 10.3997 51.5762 10.6552 51.8924 10.6552H52.6236V20.1734C52.6236 20.4897 52.8791 20.7452 53.1953 20.7452H55.4571C55.7733 20.7452 56.0288 20.4897 56.0288 20.1734V7.9455C56.0288 7.62923 55.7733 7.3737 55.4571 7.3737H51.8924C51.5762 7.3737 51.3207 7.62923 51.3207 7.9455Z" fill="#00D800"/>
<path d="M62.3914 20.9915C61.0455 20.9915 59.9678 20.5209 59.1582 19.5822C58.3486 18.6436 57.9413 17.3709 57.9413 15.7643V12.3613C57.9413 10.7724 58.3461 9.50486 59.1582 8.55608C59.9678 7.60729 61.0455 7.13417 62.3914 7.13417C63.4944 7.13417 64.3597 7.45549 64.9921 8.0956C65.6246 8.73571 65.9409 9.63137 65.9409 10.7826L65.0908 9.93245H65.9409L65.8194 6.65092V3.57179C65.8194 3.25553 66.0749 2.99999 66.3912 2.99999H68.8958C69.212 2.99999 69.4675 3.25553 69.4675 3.57179V20.1667C69.4675 20.488 69.207 20.7511 68.8831 20.7511H66.5253C66.204 20.7511 65.9409 20.4905 65.9409 20.1667V18.1983H65.0908L65.9409 17.3482C65.9409 18.4993 65.6246 19.395 64.9921 20.0351C64.3597 20.6752 63.4919 20.9965 62.3914 20.9965V20.9915ZM63.7044 17.8314C64.3698 17.8314 64.8884 17.6416 65.2603 17.2596C65.6322 16.8801 65.8194 16.3386 65.8194 15.6429V12.4828C65.8194 11.787 65.6322 11.2481 65.2603 10.8661C64.8884 10.4865 64.3698 10.2943 63.7044 10.2943C63.0391 10.2943 62.5002 10.484 62.1359 10.8661C61.7716 11.2481 61.5894 11.787 61.5894 12.4828V15.6429C61.5894 16.3412 61.7716 16.8801 62.1359 17.2596C62.5002 17.6416 63.0239 17.8314 63.7044 17.8314Z" fill="#00D800"/>
<path d="M77.027 20.9899C75.843 20.9899 74.8108 20.7672 73.9279 20.3219C73.0449 19.8766 72.3644 19.2517 71.8862 18.4497C71.4081 17.6476 71.1678 16.7115 71.1678 15.6413V12.4812C71.1678 11.4109 71.4056 10.4748 71.8862 9.67276C72.3644 8.87072 73.0449 8.24579 73.9279 7.80049C74.8108 7.35519 75.8455 7.13255 77.027 7.13255C78.2085 7.13255 79.2356 7.35519 80.1034 7.80049C80.9711 8.24579 81.6441 8.87072 82.1222 9.67276C82.6004 10.4748 82.8407 11.4109 82.8407 12.4812V14.3357C82.8407 14.6545 82.5827 14.9126 82.2639 14.9126H74.6489V15.6413C74.6489 16.4838 74.8513 17.1214 75.2561 17.5489C75.6609 17.9791 76.268 18.1941 77.0801 18.1941C77.6468 18.1941 78.1047 18.098 78.4539 17.9032C78.7069 17.7615 78.8966 17.5844 79.0256 17.3668C79.1243 17.1998 79.3115 17.1011 79.5063 17.1011H81.9224C82.3373 17.1011 82.613 17.5287 82.4435 17.9082C82.0868 18.7103 81.5176 19.3807 80.7384 19.9222C79.7087 20.6357 78.4741 20.9924 77.0295 20.9924L77.027 20.9899ZM79.3596 13.0403V12.4331C79.3596 11.6058 79.1698 10.9732 78.7878 10.5355C78.4058 10.0978 77.8189 9.88023 77.0245 9.88023C76.2301 9.88023 75.6356 10.1079 75.2384 10.5608C74.8412 11.0137 74.6438 11.6538 74.6438 12.4812V12.8455L79.6024 12.7974L79.3596 13.0403Z" fill="#00D800"/>
<path d="M87.4957 20.3421L83.5036 8.13943C83.3796 7.76245 83.6604 7.37534 84.0576 7.37534H86.5875C86.8456 7.37534 87.0733 7.54486 87.1466 7.79281L89.2591 14.8897C89.3881 15.3426 89.5171 15.8385 89.6487 16.3724C89.7777 16.9062 89.8764 17.3363 89.9396 17.6602C90.0206 17.3363 90.1218 16.9062 90.2432 16.3724C90.3647 15.8385 90.481 15.3502 90.5949 14.9125L92.6846 7.79534C92.7579 7.54486 92.9856 7.37534 93.2462 7.37534H95.723C96.1202 7.37534 96.4035 7.76245 96.2796 8.14196L92.3304 20.3421C92.252 20.585 92.0268 20.7494 91.7713 20.7494H88.0549C87.7993 20.7494 87.5742 20.585 87.4957 20.3446V20.3421Z" fill="#00D800"/>
<path d="M102.85 20.9899C101.666 20.9899 100.628 20.7672 99.7378 20.3219C98.8473 19.8766 98.1566 19.2517 97.6709 18.4497C97.1851 17.6476 96.9422 16.7115 96.9422 15.6413V12.4812C96.9422 11.3958 97.1851 10.4546 97.6709 9.66011C98.1566 8.86566 98.8447 8.24579 99.7378 7.80049C100.628 7.35519 101.666 7.13255 102.85 7.13255C104.615 7.13255 106.027 7.57784 107.08 8.47096C107.975 9.22999 108.514 10.2218 108.694 11.4489C108.747 11.8031 108.468 12.1194 108.109 12.1194H105.597C105.331 12.1194 105.104 11.9397 105.03 11.6842C104.927 11.3199 104.729 11.0188 104.441 10.7835C104.044 10.4596 103.512 10.2977 102.85 10.2977C102.121 10.2977 101.562 10.4849 101.172 10.8568C100.783 11.2288 100.588 11.7727 100.588 12.4862V15.6463C100.588 16.3446 100.783 16.8835 101.172 17.263C101.562 17.6451 102.121 17.8348 102.85 17.8348C103.515 17.8348 104.044 17.678 104.441 17.3617C104.732 17.1315 104.927 16.8279 105.033 16.4559C105.106 16.1953 105.336 16.0132 105.605 16.0132H108.104C108.463 16.0132 108.744 16.332 108.691 16.6887C108.509 17.9133 107.97 18.9025 107.077 19.6616C106.022 20.5522 104.613 21 102.847 21L102.85 20.9899Z" fill="#00D800"/>
<path d="M116.002 20.9899C114.818 20.9899 113.789 20.7672 112.916 20.3219C112.04 19.8766 111.362 19.2517 110.887 18.4497C110.409 17.6476 110.168 16.7115 110.168 15.6413V12.4812C110.168 11.4109 110.406 10.4748 110.887 9.67276C111.365 8.87072 112.04 8.24579 112.916 7.80049C113.791 7.35519 114.821 7.13255 116.002 7.13255C117.184 7.13255 118.234 7.35519 119.101 7.80049C119.969 8.24579 120.642 8.87072 121.12 9.67276C121.598 10.4748 121.839 11.4109 121.839 12.4812V15.6413C121.839 16.7115 121.598 17.6476 121.12 18.4497C120.642 19.2517 119.969 19.8766 119.101 20.3219C118.234 20.7672 117.201 20.9899 116.002 20.9899ZM116.002 17.8298C116.716 17.8298 117.257 17.64 117.631 17.258C118.003 16.8785 118.191 16.337 118.191 15.6413V12.4812C118.191 11.7677 118.003 11.2262 117.631 10.8518C117.26 10.4799 116.716 10.2926 116.002 10.2926C115.289 10.2926 114.765 10.4799 114.386 10.8518C114.004 11.2237 113.814 11.7677 113.814 12.4812V15.6413C113.814 16.3396 114.004 16.8785 114.386 17.258C114.765 17.64 115.307 17.8298 116.002 17.8298Z" fill="#00D800"/>
<path d="M127.842 20.9915C126.497 20.9915 125.419 20.5209 124.609 19.5822C123.8 18.6436 123.392 17.3709 123.392 15.7643V12.3613C123.392 10.7724 123.797 9.50486 124.609 8.55608C125.419 7.60729 126.497 7.13417 127.842 7.13417C128.946 7.13417 129.811 7.45549 130.443 8.0956C131.076 8.73571 131.392 9.63137 131.392 10.7826L130.542 9.93245H131.392L131.271 6.65092V3.55408C131.271 3.24794 131.518 2.99999 131.825 2.99999H134.365C134.671 2.99999 134.919 3.24794 134.919 3.55408V20.1743C134.919 20.4931 134.661 20.7511 134.342 20.7511H131.969C131.65 20.7511 131.392 20.4931 131.392 20.1743V18.1983H130.542L131.392 17.3482C131.392 18.4993 131.076 19.395 130.443 20.0351C129.811 20.6752 128.943 20.9965 127.842 20.9965V20.9915ZM129.156 17.8314C129.821 17.8314 130.34 17.6416 130.711 17.2596C131.083 16.8801 131.271 16.3386 131.271 15.6429V12.4828C131.271 11.787 131.083 11.2481 130.711 10.8661C130.34 10.4865 129.821 10.2943 129.156 10.2943C128.49 10.2943 127.951 10.484 127.587 10.8661C127.223 11.2481 127.041 11.787 127.041 12.4828V15.6429C127.041 16.3412 127.223 16.8801 127.587 17.2596C127.951 17.6416 128.475 17.8314 129.156 17.8314Z" fill="#00D800"/>
<path d="M142.478 20.9899C141.294 20.9899 140.262 20.7672 139.379 20.3219C138.496 19.8766 137.815 19.2517 137.337 18.4497C136.859 17.6476 136.619 16.7115 136.619 15.6413V12.4812C136.619 11.4109 136.856 10.4748 137.337 9.67276C137.815 8.87072 138.496 8.24579 139.379 7.80049C140.262 7.35519 141.296 7.13255 142.478 7.13255C143.659 7.13255 144.686 7.35519 145.554 7.80049C146.422 8.24579 147.095 8.87072 147.573 9.67276C148.051 10.4748 148.292 11.4109 148.292 12.4812V14.3408C148.292 14.657 148.036 14.9126 147.72 14.9126H140.1V15.6413C140.1 16.4838 140.302 17.1214 140.707 17.5489C141.112 17.9791 141.719 18.1941 142.531 18.1941C143.098 18.1941 143.556 18.098 143.905 17.9032C144.158 17.7615 144.35 17.5818 144.479 17.3617C144.578 17.1947 144.76 17.0986 144.955 17.0986H147.388C147.798 17.0986 148.066 17.5211 147.902 17.893C147.545 18.7001 146.976 19.3757 146.192 19.9171C145.162 20.6306 143.927 20.9873 142.483 20.9873L142.478 20.9899ZM144.813 13.0403V12.4331C144.813 11.6058 144.623 10.9732 144.241 10.5355C143.859 10.0978 143.272 9.88023 142.478 9.88023C141.683 9.88023 141.089 10.1079 140.692 10.5608C140.295 11.0137 140.097 11.6538 140.097 12.4812V12.8455L145.056 12.7974L144.813 13.0403Z" fill="#00D800"/>
</svg>
