<svg width="16" height="16" viewBox="0 0 16 16" fill="none" xmlns="http://www.w3.org/2000/svg">
<path d="M15.1202 1.6534C14.3069 0.600546 13.085 0 11.7606 0H4.23753C1.90024 0 0 1.90046 0 4.23803V11.7639C0 13.0866 0.600475 14.3105 1.64751 15.1182C1.64941 15.1182 1.65131 15.1201 1.65321 15.122C2.3886 15.6883 3.30641 16 4.23753 16H11.7625C14.0979 16 16 14.0995 16 11.762V4.23803C16 3.30681 15.6884 2.39078 15.1221 1.6534H15.1202ZM2.79525 11.762V4.23803C2.79525 3.44174 3.43943 2.79748 4.23563 2.79748H11.7606C12.2261 2.79748 12.6404 3.01794 12.9045 3.36002L3.35772 12.9079C3.01568 12.6438 2.79525 12.2295 2.79525 11.7639V11.762Z" fill="#A0FFC4"/>
</svg>
