<svg width="24" height="24" viewBox="0 0 24 24" fill="none" xmlns="http://www.w3.org/2000/svg">
<path fill-rule="evenodd" clip-rule="evenodd" d="M19.03 7.46995C19.1705 7.61058 19.2493 7.8012 19.2493 7.99995C19.2493 8.1987 19.1705 8.38932 19.03 8.52995L11.03 16.53C10.8894 16.6704 10.6988 16.7493 10.5 16.7493C10.3013 16.7493 10.1106 16.6704 9.97 16.53L5.47 12.03C5.39631 11.9613 5.33721 11.8785 5.29622 11.7865C5.25523 11.6945 5.23319 11.5952 5.23141 11.4945C5.22963 11.3938 5.24816 11.2937 5.28588 11.2004C5.3236 11.107 5.37974 11.0221 5.45096 10.9509C5.52218 10.8797 5.60701 10.8235 5.7004 10.7858C5.79379 10.7481 5.89382 10.7296 5.99452 10.7314C6.09523 10.7331 6.19454 10.7552 6.28654 10.7962C6.37854 10.8372 6.46134 10.8963 6.53 10.97L10.5 14.9399L17.97 7.46995C18.1106 7.3295 18.3013 7.25061 18.5 7.25061C18.6988 7.25061 18.8894 7.3295 19.03 7.46995Z" fill="#0AE98A"/>
</svg>
