<svg width="20" height="18" viewBox="0 0 20 18" fill="none" xmlns="http://www.w3.org/2000/svg">
<path d="M10.8915 0.741333C11.0345 0.208087 11.5828 -0.108527 12.1161 0.0343018C12.6493 0.177321 12.9659 0.725625 12.8231 1.25891L8.68935 16.6876C8.54638 17.2209 7.99807 17.5374 7.46474 17.3947C6.93131 17.2517 6.61485 16.7035 6.75771 16.17L10.8915 0.741333ZM13.4354 4.29309C13.8259 3.90263 14.459 3.90276 14.8495 4.29309L18.8495 8.29309C19.24 8.68362 19.24 9.31663 18.8495 9.70715L14.8495 13.7072C14.459 14.0975 13.8259 14.0976 13.4354 13.7072C13.0452 13.3167 13.0451 12.6836 13.4354 12.2931L16.7284 9.00012L13.4354 5.70715C13.0452 5.31666 13.0451 4.68356 13.4354 4.29309ZM4.29286 3.7218C4.68336 3.3313 5.31639 3.33134 5.70692 3.7218C6.09745 4.11233 6.09745 4.74534 5.70692 5.13586L2.41396 8.42883L5.70692 11.7218C6.09745 12.1123 6.09745 12.7453 5.70692 13.1359C5.3164 13.5264 4.68339 13.5264 4.29286 13.1359L0.292862 9.13586C-0.0975966 8.74533 -0.0976402 8.1123 0.292862 7.7218L4.29286 3.7218Z" fill="#0AE98A"/>
</svg>
