<svg width="48" height="48" viewBox="0 0 48 48" fill="none" xmlns="http://www.w3.org/2000/svg">
<path d="M9.54897 23.5494C8.61806 23.1529 8.38329 21.9408 9.09878 21.2253L14.0879 16.2362C14.428 15.8961 14.8307 15.6524 15.2962 15.5051C15.7608 15.3587 16.2309 15.3406 16.7064 15.4509L16.9001 15.4913C17.9497 15.7103 18.3937 16.966 17.7461 17.8205C17.0568 18.73 16.4565 19.5827 15.9451 20.3786C15.2974 21.3866 14.6503 22.5665 14.0036 23.9182C13.6668 24.6223 12.8385 24.9509 12.1205 24.645L9.54897 23.5494ZM15.663 26.2653C15.2482 25.8504 15.1266 25.2228 15.3757 24.6916C16.0697 23.2115 16.8664 21.7907 17.7657 20.4291C18.8431 18.7979 20.0833 17.2799 21.4864 15.8751C23.7127 13.6488 26.1373 11.9835 28.76 10.8792C31.0046 9.93204 33.4007 9.44508 35.9483 9.41829C36.6831 9.41056 37.276 10.0036 37.2681 10.7384C37.2408 13.2854 36.7539 15.6815 35.8075 17.9267C34.7024 20.5486 33.0367 22.9727 30.8104 25.199C29.4123 26.5971 27.8985 27.8339 26.269 28.9096C24.9085 29.8089 23.4842 30.6086 21.9963 31.3088C21.4645 31.559 20.8356 31.4378 20.42 31.0223L15.663 26.2653ZM26.0064 20.6803C26.5392 21.2131 27.1704 21.4791 27.9002 21.4783C28.6299 21.4791 29.2612 21.2131 29.794 20.6803C30.3268 20.1475 30.5928 19.5163 30.5919 18.7865C30.5911 18.0568 30.3251 17.4255 29.794 16.8927C29.2629 16.3599 28.6316 16.0939 27.9002 16.0948C27.1704 16.0939 26.5392 16.3599 26.0064 16.8927C25.4736 17.4255 25.2076 18.0568 25.2084 18.7865C25.2093 19.5163 25.4753 20.1475 26.0064 20.6803ZM25.4305 37.5734C24.7172 38.2867 23.5093 38.0559 23.1092 37.1299L22.0033 34.5703C21.6926 33.8511 22.0206 33.0182 22.7272 32.6798C24.0773 32.0332 25.2587 31.3833 26.2715 30.7302C27.0662 30.2178 27.9153 29.6193 28.8189 28.9348C29.6791 28.2831 30.9429 28.7381 31.1517 29.7968L31.1879 29.9803C31.2981 30.4558 31.28 30.9259 31.1336 31.3905C30.9871 31.8568 30.7439 32.26 30.4038 32.6001L25.4305 37.5734Z" fill="#0AE98A"/>
<path d="M18.9728 32.4552L14.2477 27.7301C13.895 27.3773 13.3394 27.3085 12.951 27.6215C10.1623 29.8684 9.46141 33.8654 9.4592 36.3051C9.45873 36.8283 9.87725 37.2457 10.4004 37.256C14.8396 37.3434 17.7498 35.2708 19.0666 33.7394C19.3918 33.3611 19.3256 32.8079 18.9728 32.4552Z" fill="#D5AB00"/>
<path d="M21.4872 8.83744L20.9389 10.1L21.4872 11.3625L20.2247 10.8142L18.9622 11.3625L19.5105 10.1L18.9622 8.83744L20.2247 9.38578L21.4872 8.83744Z" fill="#0AE98A"/>
<path d="M7.59797 25.251L7.04962 26.5136L7.59797 27.7761L6.33542 27.2278L5.07287 27.7761L5.62121 26.5136L5.07287 25.251L6.33542 25.7994L7.59797 25.251Z" fill="#0AE98A"/>
<path d="M36.637 29.0385L36.0887 30.3011L36.637 31.5636L35.3745 31.0153L34.1119 31.5636L34.6603 30.3011L34.1119 29.0385L35.3745 29.5869L36.637 29.0385Z" fill="#0AE98A"/>
</svg>
