<svg width="18" height="17" viewBox="0 0 18 17" fill="none" xmlns="http://www.w3.org/2000/svg">
<path d="M8.40723 9.16699C7.95786 8.01015 9.15363 6.89873 10.2744 7.43164L16.584 10.4326C17.7138 10.9704 17.5923 12.6165 16.3955 12.9824L14.4531 13.5762C14.3042 13.6217 14.1886 13.7397 14.1465 13.8896L13.6191 15.7686C13.2634 17.0373 11.4977 17.1237 11.0205 15.8955L8.40723 9.16699ZM14.9736 0.00585938C15.55 0.0642773 16 0.550804 16 1.14258V4.57129C15.9996 5.16278 15.5498 5.64965 14.9736 5.70801L14.8574 5.71387H5.71387V14.8574L5.70801 14.9736C5.64941 15.5498 5.16297 16 4.57129 16H1.14258C0.551013 15.9999 0.0644324 15.5498 0.00585938 14.9736L0 14.8574V1.14258C0.000150964 0.511617 0.511617 0.000150785 1.14258 0H14.8574L14.9736 0.00585938ZM9.88184 8.25781C9.50824 8.08015 9.10997 8.45031 9.25977 8.83594L11.873 15.5645C12.0321 15.9736 12.6205 15.9451 12.7393 15.5225L13.2666 13.6426C13.3928 13.193 13.739 12.8388 14.1855 12.7021L16.1279 12.1074C16.5268 11.9855 16.5678 11.4372 16.1914 11.2578L9.88184 8.25781ZM1.14258 14.8574H4.57129V14.8564H3.42871V13.7139H4.57129V12.5713H3.42871V11.4277H4.57129V10.2852H3.42871V9.14258H4.57129V8H3.42871V6.85742H4.57129V5.71387H1.14258V14.8574ZM1.14258 4.57129H4.57129V1.14258H1.14258V4.57129ZM5.71387 4.57129H6.85742V3.42871H8V4.57129H9.14258V3.42871H10.2861V4.57129H11.4287V3.42871H12.5713V4.57129H13.7139V3.42871H14.8574V1.14258H5.71387V4.57129Z" fill="#76B8E8"/>
</svg>
